<svg id="Layer_3" enable-background="new 0 0 64 64" height="512" viewBox="0 0 64 64" width="512" xmlns="http://www.w3.org/2000/svg"><path d="m10 17h46v30h-46z" fill="#69d6f4"/><path d="m10 17v30h-4c-2.21 0-4-1.79-4-4v-22c0-2.21 1.79-4 4-4z" fill="#aab2bd"/><path d="m62 21v22c0 2.21-1.79 4-4 4h-2v-30h2c2.21 0 4 1.79 4 4z" fill="#aab2bd"/><path d="m54 58 2 4h-48l2-4h6 8 4 8 4 8z" fill="#aab2bd"/><path d="m22 44v10h-4v-7-3z" fill="#ccd1d9"/><path d="m30 44h4v10h-4z" fill="#ccd1d9"/><path d="m46 47v7h-4v-10h4z" fill="#ccd1d9"/><g fill="#e6e9ed"><path d="m48 56v2h-8v-2c0-1.1.9-2 2-2h4c1.1 0 2 .9 2 2z"/><path d="m36 56v2h-8v-2c0-1.1.9-2 2-2h4c1.1 0 2 .9 2 2z"/><path d="m24 56v2h-8v-2c0-1.1.9-2 2-2h4c1.1 0 2 .9 2 2z"/><path d="m24 40v2c0 1.1-.9 2-2 2h-4c-1.1 0-2-.9-2-2v-2z"/><path d="m36 40v2c0 1.1-.9 2-2 2h-4c-1.1 0-2-.9-2-2v-2h4z"/><path d="m48 40v2c0 1.1-.9 2-2 2h-4c-1.1 0-2-.9-2-2v-2z"/></g><path d="m27.1 35.99c.46 2.29 2.48 4.01 4.9 4.01h-4-4-8-2v-4h13z" fill="#ccd1d9"/><path d="m32 40c2.42 0 4.44-1.72 4.9-4.01l.1.01h13v4h-2-8-4z" fill="#ccd1d9"/><path d="m27 35c0 .34.03.67.1.99l-.1.01h-13l15.42-10.28h.01l2.57-1.72 2.57 1.72h.01l15.42 10.28h-13l-.1-.01c.07-.32.1-.65.1-.99 0-2.76-2.24-5-5-5s-5 2.24-5 5z" fill="#e6e9ed"/><path d="m37 35c0 .34-.03.67-.1.99-.46 2.29-2.48 4.01-4.9 4.01s-4.44-1.72-4.9-4.01c-.07-.32-.1-.65-.1-.99 0-2.76 2.24-5 5-5s5 2.24 5 5z" fill="#fcd770"/><path d="m32 24-2.57 1.72h-.01c-4.44-.98-7.97-4.41-9.06-8.81-.24-.93-.36-1.91-.36-2.91 0-6.63 5.37-12 12-12s12 5.37 12 12c0 1-.12 1.98-.36 2.91-1.09 4.4-4.62 7.83-9.06 8.81h-.01z" fill="#fcd770"/><path d="m58 16h-13.165c.103-.655.165-1.322.165-2 0-7.168-5.832-13-13-13s-13 5.832-13 13c0 .678.062 1.345.165 2h-13.165c-2.757 0-5 2.243-5 5v22c0 2.757 2.243 5 5 5h11v5.184c-1.161.414-2 1.514-2 2.816v1h-5.618l-3 6h51.236l-3-6h-5.618v-1c0-1.302-.839-2.402-2-2.816v-5.184h11c2.757 0 5-2.243 5-5v-22c0-2.757-2.243-5-5-5zm-26-13c6.065 0 11 4.935 11 11 0 4.99-3.446 9.393-8.246 10.635l-1.754-1.17v-2.607c1.721-.447 3-2 3-3.858 0-2.206-1.794-4-4-4-1.103 0-2-.897-2-2s.897-2 2-2 2 .897 2 2h2c0-1.858-1.279-3.411-3-3.858v-2.142h-2v2.142c-1.721.447-3 2-3 3.858 0 2.206 1.794 4 4 4 1.103 0 2 .897 2 2s-.897 2-2 2-2-.897-2-2h-2c0 1.858 1.279 3.411 3 3.858v2.607l-1.754 1.17c-4.8-1.242-8.246-5.645-8.246-10.635 0-6.065 4.935-11 11-11zm17 34v2h-12.54c.954-1.063 1.54-2.462 1.54-4 0-3.309-2.691-6-6-6s-6 2.691-6 6c0 1.538.586 2.937 1.54 4h-12.54v-2h8v-2h-5.697l14.697-9.798 14.697 9.798h-5.697v2zm-6 16v-8h2v8zm-4 3v1h-2v-1c0-1.302-.839-2.402-2-2.816v-5.184h6v5.184c-1.161.414-2 1.514-2 2.816zm-16-15v1c0 .551-.448 1-1 1h-4c-.552 0-1-.449-1-1v-1zm5-6c0-2.206 1.794-4 4-4s4 1.794 4 4-1.794 4-4 4-4-1.794-4-4zm13 9.816v1.184h-6v-1.184c1.161-.414 2-1.514 2-2.816v-1h2v1c0 1.302.839 2.402 2 2.816zm-6-3.816v1c0 .551-.448 1-1 1h-4c-.552 0-1-.449-1-1v-1zm-4 4h2v8h-2zm-2-.184v1.184h-6v-1.184c1.161-.414 2-1.514 2-2.816v-1h2v1c0 1.302.839 2.402 2 2.816zm-10 .184h2v8h-2zm4 8.184v-5.184h6v5.184c-1.161.414-2 1.514-2 2.816v1h-2v-1c0-1.302-.839-2.402-2-2.816zm6 2.816c0-.551.448-1 1-1h4c.552 0 1 .449 1 1v1h-6zm17-13h-4c-.552 0-1-.449-1-1v-1h6v1c0 .551-.448 1-1 1zm-43 0v-22c0-1.654 1.346-3 3-3h3v28h-3c-1.654 0-3-1.346-3-3zm8 3v-28h8.651c1.185 3.61 3.917 6.596 7.479 8.045l-14.13 9.42v5.535h2v1c0 1.302.839 2.402 2 2.816v1.184zm6 10c0-.551.448-1 1-1h4c.552 0 1 .449 1 1v1h-6zm37.382 5h-44.764l1-2h42.764zm-13.382-4v-1c0-.551.448-1 1-1h4c.552 0 1 .449 1 1v1zm6-12.184c1.161-.414 2-1.514 2-2.816v-1h2v-5.535l-14.13-9.42c3.562-1.449 6.294-4.435 7.479-8.045h10.651v28h-8zm14-1.816c0 1.654-1.346 3-3 3h-1v-28h1c1.654 0 3 1.346 3 3z"/><path d="m5 29h2v6h-2z"/><path d="m39 13h2v2h-2z"/><path d="m23 13h2v2h-2z"/></svg>