<svg height="512pt" viewBox="-72 0 512 512" width="512pt" xmlns="http://www.w3.org/2000/svg"><path d="m270.066406 350.710938v153.789062h-262.566406v-497h262.566406zm0 0" fill="#e5ecec"/><path d="m270.066406 350.710938v153.789062h-65.640625v-497h65.640625zm0 0" fill="#fff"/><path d="m82.519531 288.820312h210.050781v60.015626h-210.050781zm0 0" fill="#66e299"/><path d="m82.519531 288.820312h56.265625v60.015626h-56.265625zm0 0" fill="#00b58b"/><path d="m82.519531 198.796875h232.558594v60.015625h-232.558594zm0 0" fill="#fe7829"/><path d="m82.519531 198.796875h54.390625v60.015625h-54.390625zm0 0" fill="#fa640d"/><path d="m60.015625 350.710938v153.789062h-52.515625v-497h52.515625zm0 0" fill="#b8bfc5"/><path d="m82.519531 71.265625h277.570313v97.527344h-277.570313zm0 0" fill="#ff6969"/><path d="m5.625 442.609375h264.441406v58.136719h-264.441406zm0 0" fill="#44c9f7"/><path d="m5.625 442.609375h54.390625v58.136719h-54.390625zm0 0" fill="#0083ad"/><path d="m5.625 11.253906h54.390625v26.253906h-54.390625zm0 0" fill="#0083ad"/><path d="m60.015625 11.253906h144.410156v26.253906h-144.410156zm0 0" fill="#1fb5f3"/><path d="m204.425781 11.253906h63.765625v26.253906h-63.765625zm0 0" fill="#44c9f7"/><path d="m60.015625 442.609375h142.535156v58.136719h-142.535156zm0 0" fill="#1fb5f3"/><path d="m82.519531 71.265625h52.511719v97.527344h-52.511719zm0 0" fill="#fe3934"/><path d="m161.289062 476.367188c0 14.5-11.753906 26.253906-26.257812 26.253906-14.5 0-26.253906-11.753906-26.253906-26.253906s11.753906-26.257813 26.253906-26.257813c14.503906 0 26.257812 11.757813 26.257812 26.257813zm0 0" fill="#fff"/><path d="m52.511719 30.007812h15.003906v15.003907h-15.003906zm0 0"/><path d="m82.519531 30.007812h15.003907v15.003907h-15.003907zm0 0"/><path d="m127.53125 468.863281h15.003906v15.003907h-15.003906zm0 0"/><path d="m37.507812 468.863281h15.003907v15.003907h-15.003907zm0 0"/><path d="m225.054688 468.863281h15.003906v15.003907h-15.003906zm0 0"/><g fill="#fff"><path d="m124.914062 116.277344h22.503907v15.003906h-22.503907zm0 0"/><path d="m232.558594 146.285156h-15.003906v-37.507812h-7.503907v-15.003906h22.507813zm0 0"/><path d="m285.070312 146.285156h-37.511718v-52.511718h37.511718zm-22.507812-15.003906h7.503906v-22.503906h-7.503906zm0 0"/><path d="m337.582031 146.285156h-37.507812v-52.511718h37.507812zm-22.503906-15.003906h7.5v-22.503906h-7.5zm0 0"/><path d="m184.59375 113.714844c-4.976562-1.875-6.917969-3.066406-6.917969-4.25 0-1.898438 2.601563-2.183594 4.15625-2.183594 4.003907 0 6.640625 1.148438 8.386719 1.90625l2.097656.890625 2.648438-10.304687-1.105469-.535157c-2.5-1.214843-5.355469-1.945312-8.6875-2.226562v-5.878907h-9.445313v6.546876c-6.886718 1.773437-11.113281 6.625-11.113281 12.902343 0 8.089844 6.875 11.441407 12.859375 13.453125 5.226563 1.765625 5.949219 3.109375 5.949219 4.300782 0 2.449218-4.007813 2.574218-4.8125 2.574218-4.566406 0-8.347656-1.695312-10.195313-2.707031l-1.691406-.929687-2.738281 10.667968.984375.566406c2.574219 1.492188 6.46875 2.574219 10.429688 2.933594v6.34375h9.445312v-6.984375c7.152344-1.691406 11.703125-6.839843 11.703125-13.386719 0-6.644531-3.582031-10.746093-11.953125-13.699218zm0 0"/><path d="m112.527344 221.304688h142.535156v15.003906h-142.535156zm0 0"/></g><path d="m270.066406 221.304688h15.003906v15.003906h-15.003906zm0 0"/><path d="m225.054688 311.324219h15.003906v15.003906h-15.003906zm0 0"/><path d="m255.0625 311.324219h15.003906v15.003906h-15.003906zm0 0" fill="#fff"/><path d="m195.046875 311.324219h15.003906v15.003906h-15.003906zm0 0" fill="#fff"/><path d="m165.039062 311.324219h15.003907v15.003906h-15.003907zm0 0"/><path d="m135.03125 311.324219h15.003906v15.003906h-15.003906zm0 0" fill="#fff"/><path d="m105.027344 311.324219h15.003906v15.003906h-15.003906zm0 0"/><path d="m105.027344 371.339844h15.003906v15.003906h-15.003906zm0 0"/><path d="m135.03125 371.339844h15.003906v15.003906h-15.003906zm0 0"/><path d="m75.019531 371.339844h15.003907v15.003906h-15.003907zm0 0"/><path d="m367.589844 176.292969v-112.527344h-90.023438v-63.765625h-277.566406v512h277.566406v-155.664062h22.507813v-75.015626h-22.507813v-15.003906h45.011719v-75.019531h-45.011719v-15.003906zm-15.003906-15.003907h-262.5625v-82.519531h262.5625zm-337.582032 335.707032v-43.136719h247.558594v43.136719zm270.066406-155.664063h-195.046874v-45.007812h195.046874zm22.503907-90.019531h-217.550781v-45.011719h217.550781zm-45.011719-60.015625h-187.542969v75.019531h187.542969v15.003906h-187.542969v75.015626h187.542969v82.519531h-247.558594v-393.84375h22.503906v-15.003907h-22.503906v-15.003906h247.558594v15.003906h-150.035156v15.003907h150.035156v18.753906h-187.542969v112.527344h187.542969zm0 0"/></svg>