<svg height="512pt" viewBox="0 -1 512 512" width="512pt" xmlns="http://www.w3.org/2000/svg"><path d="m457 390h-402c-30.328125 0-55-24.671875-55-55v-280c0-30.328125 24.671875-55 55-55h402c30.328125 0 55 24.671875 55 55v280c0 30.328125-24.671875 55-55 55zm0 0" fill="#e6f0f0"/><path d="m457 0h-201v390h201c30.328125 0 55-24.671875 55-55v-280c0-30.328125-24.671875-55-55-55zm0 0" fill="#cdd7d7"/><path d="m55 30h402c13.785156 0 25 11.214844 25 25v245h-452v-245c0-13.785156 11.214844-25 25-25zm0 0" fill="#78e0ea"/><path d="m457 30h-201v270h226v-245c0-13.785156-11.214844-25-25-25zm0 0" fill="#3cccdd"/><path d="m256 135c-99.410156 0-180 80.589844-180 180h360c0-99.410156-80.589844-180-180-180zm0 0" fill="#feef55"/><path d="m346.8125 465h-181.625l30-90h121.625zm0 0" fill="#cdd7d7"/><path d="m316.8125 375h-60.8125v90h90.8125zm0 0" fill="#abb1b1"/><path d="m376 510h-240c-8.285156 0-15-6.714844-15-15 0-24.8125 20.1875-45 45-45h180c24.8125 0 45 20.1875 45 45 0 8.285156-6.714844 15-15 15zm0 0" fill="#e6f0f0"/><path d="m346 450h-90v60h120c8.285156 0 15-6.714844 15-15 0-24.8125-20.1875-45-45-45zm0 0" fill="#cdd7d7"/><path d="m256 135v180h180c0-99.410156-80.589844-180-180-180zm0 0" fill="#fedc00"/><path d="m273.011719 255.539062 15-25.980468c4.140625-7.175782 13.3125-9.632813 20.488281-5.492188 7.175781 4.144532 9.632812 13.316406 5.488281 20.492188l-15 25.980468zm0 0" fill="#46465a"/><path d="m256 240c-41.421875 0-75 33.578125-75 75h150c0-41.421875-33.578125-75-75-75zm0 0" fill="#ff5036"/><path d="m256 240v75h75c0-41.421875-33.578125-75-75-75zm0 0" fill="#e62300"/><path d="m406 89h-300c-8.285156 0-15-6.714844-15-15s6.714844-15 15-15h300c8.285156 0 15 6.714844 15 15s-6.714844 15-15 15zm0 0" fill="#ff5036"/><path d="m256 135v45c8.285156 0 15-6.714844 15-15v-30zm0 0" fill="#46465a"/><path d="m406 59h-150v30h150c8.285156 0 15-6.714844 15-15s-6.714844-15-15-15zm0 0" fill="#e62300"/><path d="m256 120c-102.476562 0-186.742188 79.457031-194.429688 180h30.105469c1.734375-19.183594 6.777344-37.425781 14.535157-54.160156l12.386718 7.148437c2.359375 1.367188 4.9375 2.015625 7.484375 2.015625 5.183594 0 10.226563-2.691406 13.003907-7.503906 4.140624-7.175781 1.683593-16.347656-5.488282-20.488281l-12.34375-7.128907c10.863282-15.347656 24.28125-28.765624 39.628906-39.628906l7.125 12.34375c2.777344 4.8125 7.820313 7.503906 13.003907 7.503906 2.546875 0 5.125-.648437 7.488281-2.011718 7.171875-4.144532 9.632812-13.316406 5.488281-20.492188l-7.148437-12.382812c16.734375-7.757813 34.976562-12.792969 54.160156-14.527344v14.3125c0 8.285156 6.714844 15 15 15 8.28125 0 15-6.714844 15-15v-14.316406c19.179688 1.738281 37.421875 6.769531 54.160156 14.527344l-7.152344 12.386718c-4.140624 7.171875-1.683593 16.347656 5.492188 20.488282 2.363281 1.363281 4.941406 2.011718 7.484375 2.011718 5.183594 0 10.226563-2.691406 13.003906-7.5l7.125-12.34375c15.351563 10.863282 28.765625 24.28125 39.632813 39.628906l-12.34375 7.125c-7.175782 4.140626-9.632813 13.316407-5.492188 20.488282 2.78125 4.816406 7.820313 7.503906 13.003906 7.503906 2.546876 0 5.125-.648438 7.488282-2.011719l12.382812-7.148437c7.761719 16.734375 12.800782 34.976562 14.539063 54.15625h30.101562c-7.683593-100.539063-91.949219-179.996094-194.425781-179.996094zm0 0" fill="#5a5a6e"/><path d="m271 165v-14.316406c19.183594 1.738281 37.425781 6.769531 54.160156 14.527344l-7.148437 12.386718c-4.144531 7.171875-1.6875 16.347656 5.488281 20.488282 2.363281 1.363281 4.941406 2.011718 7.484375 2.011718 5.1875 0 10.230469-2.691406 13.003906-7.5l7.128907-12.34375c15.347656 10.863282 28.765624 24.28125 39.628906 39.628906l-12.34375 7.125c-7.171875 4.140626-9.632813 13.316407-5.488282 20.488282 2.777344 4.816406 7.820313 7.503906 13.003907 7.503906 2.542969 0 5.121093-.648438 7.484375-2.011719l12.386718-7.148437c7.757813 16.734375 12.800782 34.976562 14.535157 54.15625h30.105469c-7.6875-100.539063-91.953126-179.996094-194.429688-179.996094v60c8.285156 0 15-6.714844 15-15zm0 0" fill="#46465a"/><path d="m457 390h-402c-30.375 0-55-24.625-55-55v-35h512v35c0 30.375-24.625 55-55 55zm0 0" fill="#e6f0f0"/><path d="m512 300h-256v90h201c30.375 0 55-24.625 55-55zm0 0" fill="#cdd7d7"/></svg>