<svg height="496pt" viewBox="-96 0 496 496" width="496pt" xmlns="http://www.w3.org/2000/svg"><g fill="#57a4ff"><path d="m296 40v32h-288v-32c0-17.671875 14.328125-32 32-32h224c17.671875 0 32 14.328125 32 32zm0 0"/><path d="m8 408v48c0 17.671875 14.328125 32 32 32h224c17.671875 0 32-14.328125 32-32v-48zm144 56c-8.835938 0-16-7.164062-16-16s7.164062-16 16-16 16 7.164062 16 16c-.027344 8.824219-7.175781 15.972656-16 16zm0 0"/><path d="m168 448c0 8.835938-7.164062 16-16 16s-16-7.164062-16-16 7.164062-16 16-16 16 7.164062 16 16zm0 0"/><path d="m168 448c0 8.835938-7.164062 16-16 16s-16-7.164062-16-16 7.164062-16 16-16 16 7.164062 16 16zm0 0"/></g><path d="m264 0h-224c-22.082031.0273438-39.9726562 17.917969-40 40v416c.0273438 22.082031 17.917969 39.972656 40 40h224c22.082031-.027344 39.972656-17.917969 40-40v-416c-.027344-22.082031-17.917969-39.9726562-40-40zm-248 80h272v320h-272zm0-40c0-13.253906 10.746094-24 24-24h224c13.253906 0 24 10.746094 24 24v24h-272zm272 416c0 13.253906-10.746094 24-24 24h-224c-13.253906 0-24-10.746094-24-24v-40h272zm0 0" fill="#004fac"/><path d="m184 32h-72c-4.417969 0-8 3.582031-8 8s3.582031 8 8 8h72c4.417969 0 8-3.582031 8-8s-3.582031-8-8-8zm0 0" fill="#004fac"/><path d="m216 32h-8c-4.417969 0-8 3.582031-8 8s3.582031 8 8 8h8c4.417969 0 8-3.582031 8-8s-3.582031-8-8-8zm0 0" fill="#004fac"/><path d="m152 472c13.253906 0 24-10.746094 24-24s-10.746094-24-24-24-24 10.746094-24 24 10.746094 24 24 24zm0-32c4.417969 0 8 3.582031 8 8s-3.582031 8-8 8-8-3.582031-8-8 3.582031-8 8-8zm0 0" fill="#004fac"/></svg>